<svg width="17" height="16" viewBox="0 0 17 16" fill="none" xmlns="http://www.w3.org/2000/svg">
<path d="M7.80465 13.1888L7.80464 13.1888L4.09272 14.6982L4.38121 10.7016C4.41015 10.3007 4.28137 9.90434 4.02233 9.59703L1.43975 6.53322L5.32996 5.57255C5.72017 5.47619 6.05731 5.23124 6.26953 4.88991L8.38533 1.48696L10.5011 4.88991L11.3739 4.34727L10.5011 4.88992C10.7133 5.23124 11.0505 5.47619 11.4407 5.57255L15.3309 6.53322L12.7483 9.59703C12.4893 9.90434 12.3605 10.3007 12.3894 10.7016L12.6779 14.6982L8.96602 13.1888L8.57889 14.1408L8.96601 13.1888C8.59369 13.0374 8.17696 13.0374 7.80465 13.1888ZM0.637387 6.73136L0.638017 6.7312C0.637807 6.73126 0.637597 6.73131 0.637387 6.73136L0.514194 6.23249L0.637387 6.73136Z" stroke="url(#paint0_linear_0_301)" stroke-width="2"/>
<defs>
<linearGradient id="paint0_linear_0_301" x1="8.38533" y1="-0.459408" x2="8.38533" y2="18.0394" gradientUnits="userSpaceOnUse">
<stop stop-color="#605DEC"/>
<stop offset="1" stop-color="#2A26D9"/>
</linearGradient>
</defs>
</svg>
