<svg width="30" height="30" viewBox="0 0 30 30" fill="none" xmlns="http://www.w3.org/2000/svg">
<path d="M9.99105 26.7175C9.51194 26.3968 9.08652 26.004 8.73098 25.5503C8.34304 25.0803 7.98345 24.586 7.65324 24.0744C6.87735 22.9376 6.27061 21.6941 5.85025 20.3837C5.34379 18.8592 5.09766 17.3995 5.09766 15.9714C5.09766 14.3778 5.44205 12.9872 6.1126 11.8199C6.60893 10.9064 7.34835 10.1421 8.23972 9.6051C9.1007 9.06713 10.1035 8.77277 11.1164 8.75247C11.4709 8.75247 11.8558 8.80322 12.261 8.90473C12.5547 8.98593 12.9093 9.11788 13.3448 9.28029C13.9019 9.49345 14.2058 9.6254 14.3071 9.65585C14.6312 9.77766 14.9047 9.82841 15.1174 9.82841C15.2795 9.82841 15.5125 9.77766 15.7707 9.69645C15.9176 9.6457 16.1962 9.55435 16.5912 9.38179C16.9822 9.23969 17.2921 9.11788 17.5383 9.02653C17.9131 8.91488 18.2757 8.81337 18.6018 8.76262C18.9969 8.70172 19.3889 8.68142 19.7647 8.71187C20.4838 8.76262 21.1422 8.91488 21.7297 9.13819C22.7629 9.55435 23.5965 10.204 24.2185 11.1276C23.9551 11.2901 23.712 11.4789 23.4841 11.6859C22.9908 12.1224 22.5725 12.64 22.2382 13.2135C21.8027 13.9951 21.5798 14.8782 21.5859 15.7714C21.6011 16.8707 21.8796 17.837 22.4367 18.6744C22.8287 19.2834 23.3524 19.8052 23.9906 20.2335C24.3046 20.4467 24.5801 20.5938 24.8414 20.6903C24.7199 21.0709 24.5861 21.4414 24.4312 21.8068C24.0797 22.6259 23.6614 23.4106 23.165 24.1515C22.7274 24.791 22.3831 25.2681 22.1217 25.5827C21.7145 26.0699 21.3215 26.4354 20.9265 26.6962C20.4909 26.9855 19.9794 27.1388 19.4557 27.1388C19.1012 27.154 18.7467 27.1083 18.4084 27.0099C18.1146 26.9134 17.8249 26.8048 17.5413 26.682C17.2445 26.546 16.9376 26.4303 16.6246 26.3369C16.2397 26.2354 15.8447 26.1867 15.4456 26.1877C15.0404 26.1877 14.6454 26.2384 14.2706 26.3349C13.9566 26.4242 13.6527 26.5338 13.3519 26.6648C12.9265 26.8424 12.6479 26.9591 12.4859 27.0099C12.1577 27.1073 11.8214 27.1662 11.4831 27.1875C10.9564 27.1875 10.4661 27.0352 9.97788 26.7307L9.99105 26.7175ZM16.9336 7.98003C16.2448 8.32514 15.5904 8.47131 14.9351 8.42259C14.8338 7.76688 14.9351 7.09289 15.2086 6.35496C15.4517 5.72564 15.7758 5.15723 16.2215 4.64971C16.6874 4.12189 17.2445 3.68543 17.8725 3.37077C18.5411 3.02566 19.1792 2.84295 19.787 2.8125C19.868 3.50272 19.787 4.18279 19.5337 4.91362C19.3028 5.56324 18.9584 6.16211 18.5208 6.70008C18.0802 7.22789 17.5332 7.66436 16.9143 7.97902L16.9336 7.98003Z" fill="white"/>
</svg>
