<svg width="76" height="8" viewBox="0 0 76 8" fill="none" xmlns="http://www.w3.org/2000/svg">
<path d="M0 7.11397H2.39104C4.506 7.11397 5.74836 5.79766 5.74836 3.55452V3.54466C5.74836 1.31138 4.49614 0 2.39104 0H0V7.11397ZM0.887397 6.31531V0.798657H2.33188C3.94399 0.798657 4.84124 1.77972 4.84124 3.55452V3.56438C4.84124 5.32931 3.94399 6.31531 2.33188 6.31531H0.887397Z" fill="white"/>
<path d="M9.24825 7.21256C10.6632 7.21256 11.6196 6.18713 11.6196 4.55037V4.54051C11.6196 2.90376 10.6582 1.88818 9.24332 1.88818C7.82842 1.88818 6.872 2.90869 6.872 4.54051V4.55037C6.872 6.1822 7.82349 7.21256 9.24825 7.21256ZM9.25318 6.45335C8.34607 6.45335 7.74954 5.75822 7.74954 4.55037V4.54051C7.74954 3.34253 8.351 2.6474 9.24332 2.6474C10.1504 2.6474 10.742 3.3376 10.742 4.54051V4.55037C10.742 5.75329 10.1554 6.45335 9.25318 6.45335Z" fill="white"/>
<path d="M13.9067 7.11397H14.7793L15.9329 3.14533H15.9526L17.1112 7.11397H17.9838L19.4135 1.98678H18.5655L17.5401 6.15755H17.5204L16.3569 1.98678H15.5287L14.3701 6.15755H14.3504L13.325 1.98678H12.4721L13.9067 7.11397Z" fill="white"/>
<path d="M20.5223 7.11397H21.3802V4.09682C21.3802 3.22421 21.9077 2.6474 22.7162 2.6474C23.505 2.6474 23.8944 3.10589 23.8944 3.93906V7.11397H24.7523V3.78623C24.7523 2.61782 24.1015 1.88818 22.9775 1.88818C22.1985 1.88818 21.676 2.23821 21.3999 2.71642H21.3802V1.98678H20.5223V7.11397Z" fill="white"/>
<path d="M26.295 7.11397H27.1528V0H26.295V7.11397Z" fill="white"/>
<path d="M30.84 7.21256C32.2549 7.21256 33.2113 6.18713 33.2113 4.55037V4.54051C33.2113 2.90376 32.25 1.88818 30.8351 1.88818C29.4202 1.88818 28.4637 2.90869 28.4637 4.54051V4.55037C28.4637 6.1822 29.4152 7.21256 30.84 7.21256ZM30.8449 6.45335C29.9378 6.45335 29.3413 5.75822 29.3413 4.55037V4.54051C29.3413 3.34253 29.9427 2.6474 30.8351 2.6474C31.7422 2.6474 32.3338 3.3376 32.3338 4.54051V4.55037C32.3338 5.75329 31.7471 6.45335 30.8449 6.45335Z" fill="white"/>
<path d="M35.9816 7.21256C36.6668 7.21256 37.2831 6.84282 37.5838 6.2808H37.6035V7.11397H38.4614V3.56931C38.4614 2.54387 37.7021 1.88818 36.4894 1.88818C35.2815 1.88818 34.547 2.56852 34.473 3.41155L34.4681 3.46578H35.2963L35.3062 3.42141C35.4048 2.96292 35.8189 2.6474 36.4795 2.6474C37.1944 2.6474 37.6035 3.02701 37.6035 3.65312V4.08203L36.1344 4.16584C34.9561 4.23486 34.2758 4.78208 34.2758 5.65469V5.66455C34.2758 6.59632 34.9611 7.21256 35.9816 7.21256ZM35.1533 5.66455V5.65469C35.1533 5.17648 35.5477 4.87082 36.233 4.83138L37.6035 4.74757V5.16662C37.6035 5.91105 36.9824 6.46814 36.1738 6.46814C35.5576 6.46814 35.1533 6.15755 35.1533 5.66455Z" fill="white"/>
<path d="M41.8824 7.21256C42.6169 7.21256 43.1888 6.84282 43.5093 6.24629H43.529V7.11397H44.3868V0H43.529V2.8446H43.5093C43.1888 2.253 42.5923 1.88818 41.8676 1.88818C40.5809 1.88818 39.7033 2.92841 39.7033 4.54544V4.55037C39.7033 6.16741 40.571 7.21256 41.8824 7.21256ZM42.05 6.45335C41.1429 6.45335 40.5809 5.72864 40.5809 4.55037V4.54544C40.5809 3.37704 41.1429 2.6474 42.05 2.6474C42.9127 2.6474 43.5339 3.40169 43.5339 4.54544V4.55037C43.5339 5.69906 42.9177 6.45335 42.05 6.45335Z" fill="white"/>
<path d="M50.5485 7.21256C51.9634 7.21256 52.9198 6.18713 52.9198 4.55037V4.54051C52.9198 2.90376 51.9585 1.88818 50.5436 1.88818C49.1287 1.88818 48.1722 2.90869 48.1722 4.54051V4.55037C48.1722 6.1822 49.1237 7.21256 50.5485 7.21256ZM50.5534 6.45335C49.6463 6.45335 49.0498 5.75822 49.0498 4.55037V4.54051C49.0498 3.34253 49.6512 2.6474 50.5436 2.6474C51.4507 2.6474 52.0423 3.3376 52.0423 4.54051V4.55037C52.0423 5.75329 51.4556 6.45335 50.5534 6.45335Z" fill="white"/>
<path d="M54.1914 7.11397H55.0492V4.09682C55.0492 3.22421 55.5767 2.6474 56.3852 2.6474C57.174 2.6474 57.5635 3.10589 57.5635 3.93906V7.11397H58.4213V3.78623C58.4213 2.61782 57.7705 1.88818 56.6465 1.88818C55.8676 1.88818 55.345 2.23821 55.0689 2.71642H55.0492V1.98678H54.1914V7.11397Z" fill="white"/>
<path d="M64.0604 7.21256C64.228 7.21256 64.4104 7.19285 64.5189 7.17806V6.48293C64.4449 6.48786 64.3463 6.50265 64.2428 6.50265C63.7843 6.50265 63.5427 6.34982 63.5427 5.80259V2.6967H64.5189V1.98678H63.5427V0.601458H62.6553V1.98678H61.906V2.6967H62.6553V5.80752C62.6553 6.78859 63.1188 7.21256 64.0604 7.21256Z" fill="white"/>
<path d="M65.889 7.11397H66.7468V4.12147C66.7468 3.24886 67.2743 2.6474 68.0681 2.6474C68.8667 2.6474 69.34 3.19463 69.34 4.12147V7.11397H70.1978V3.97357C70.1978 2.73121 69.4534 1.88818 68.3639 1.88818C67.5997 1.88818 67.0426 2.22835 66.7666 2.80516H66.7468V0H65.889V7.11397Z" fill="white"/>
<path d="M73.8013 7.21256C74.9204 7.21256 75.7585 6.54209 75.9261 5.69413L75.9359 5.64483H75.0929L75.0781 5.6892C74.9302 6.12797 74.4717 6.45335 73.821 6.45335C72.9089 6.45335 72.3272 5.8371 72.3075 4.78208H76V4.46656C76 2.92841 75.1471 1.88818 73.747 1.88818C72.3469 1.88818 71.4398 2.97771 71.4398 4.56516V4.57009C71.4398 6.1822 72.3272 7.21256 73.8013 7.21256ZM73.7421 2.6474C74.4914 2.6474 75.0436 3.11575 75.1274 4.11161H72.3223C72.4159 3.15519 72.9977 2.6474 73.7421 2.6474Z" fill="white"/>
</svg>
