<svg width="80" height="17" viewBox="0 0 80 17" fill="none" xmlns="http://www.w3.org/2000/svg">
<path d="M8.31954 10.0099H3.35423L2.31539 12.9943H0L4.84206 0.176075H6.84051L11.6914 12.9943H9.36718L8.31954 10.0099ZM3.97929 8.21389H7.69447L5.83688 2.89643L3.97929 8.21389Z" fill="white"/>
<path d="M21.0652 8.32834C21.0652 9.8015 20.7307 10.9783 20.0616 11.8586C19.3925 12.7332 18.4945 13.1704 17.3676 13.1704C16.3229 13.1704 15.4866 12.8271 14.8586 12.1404V16.6567H12.7193V3.46868H14.6913L14.7793 4.43709C15.4073 3.6741 16.2613 3.2926 17.3412 3.2926C18.5033 3.2926 19.413 3.72692 20.0704 4.59556C20.7336 5.45832 21.0652 6.65857 21.0652 8.19629V8.32834ZM18.9347 8.14346C18.9347 7.19266 18.744 6.43847 18.3625 5.8809C17.9868 5.32333 17.4469 5.04455 16.7426 5.04455C15.8681 5.04455 15.2401 5.4055 14.8586 6.12741V10.3532C15.2459 11.0927 15.8798 11.4625 16.7602 11.4625C17.441 11.4625 17.9722 11.1896 18.3537 10.6437C18.741 10.092 18.9347 9.25861 18.9347 8.14346Z" fill="white"/>
<path d="M31.4251 8.32834C31.4251 9.8015 31.0905 10.9783 30.4214 11.8586C29.7524 12.7332 28.8544 13.1704 27.7275 13.1704C26.6828 13.1704 25.8464 12.8271 25.2184 12.1404V16.6567H23.0791V3.46868H25.0512L25.1392 4.43709C25.7672 3.6741 26.6212 3.2926 27.7011 3.2926C28.8632 3.2926 29.7729 3.72692 30.4302 4.59556C31.0935 5.45832 31.4251 6.65857 31.4251 8.19629V8.32834ZM29.2946 8.14346C29.2946 7.19266 29.1038 6.43847 28.7223 5.8809C28.3467 5.32333 27.8067 5.04455 27.1024 5.04455C26.2279 5.04455 25.5999 5.4055 25.2184 6.12741V10.3532C25.6058 11.0927 26.2397 11.4625 27.12 11.4625C27.8009 11.4625 28.332 11.1896 28.7135 10.6437C29.1009 10.092 29.2946 9.25861 29.2946 8.14346Z" fill="white"/>
<path d="M45.0402 9.69292C45.0402 9.12948 44.8406 8.69517 44.4415 8.38997C44.0483 8.08477 43.3352 7.77664 42.3022 7.46558C41.2692 7.15451 40.4475 6.80823 39.8371 6.42673C38.6692 5.69309 38.0852 4.73641 38.0852 3.55671C38.0852 2.52374 38.5048 1.67271 39.3441 1.00363C40.1893 0.334542 41.2839 0 42.6279 0C43.52 0 44.3153 0.164337 45.0137 0.49301C45.7122 0.821683 46.2609 1.29122 46.66 1.90161C47.0591 2.50613 47.2587 3.17815 47.2587 3.91767H45.0402C45.0402 3.24858 44.8289 2.72623 44.4063 2.3506C43.9896 1.9691 43.3909 1.77836 42.6103 1.77836C41.8825 1.77836 41.3162 1.93389 40.9112 2.24496C40.5121 2.55602 40.3125 2.99034 40.3125 3.54791C40.3125 4.01744 40.5297 4.41068 40.964 4.72761C41.3983 5.03868 42.1144 5.34387 43.1121 5.6432C44.1099 5.93666 44.911 6.27414 45.5156 6.65563C46.1201 7.03126 46.5632 7.46558 46.8449 7.95859C47.1266 8.44573 47.2675 9.01797 47.2675 9.67532C47.2675 10.7435 46.8567 11.5945 46.035 12.2284C45.2192 12.8564 44.1099 13.1704 42.7072 13.1704C41.7798 13.1704 40.9259 13.0002 40.1453 12.6598C39.3705 12.3135 38.766 11.8381 38.3317 11.2336C37.9033 10.6291 37.689 9.92476 37.689 9.12068H39.9164C39.9164 9.84846 40.157 10.4119 40.6383 10.811C41.1196 11.2101 41.8092 11.4097 42.7072 11.4097C43.4819 11.4097 44.0629 11.2541 44.4503 10.9431C44.8435 10.6261 45.0402 10.2094 45.0402 9.69292Z" fill="white"/>
<path d="M51.8961 1.15329V3.46868H53.5776V5.05335H51.8961V10.3708C51.8961 10.7347 51.9666 10.9988 52.1074 11.1631C52.2541 11.3216 52.5124 11.4009 52.8821 11.4009C53.1286 11.4009 53.3781 11.3715 53.6305 11.3128V12.9679C53.1433 13.1029 52.6738 13.1704 52.2219 13.1704C50.5785 13.1704 49.7568 12.2636 49.7568 10.45V5.05335H48.1897V3.46868H49.7568V1.15329H51.8961Z" fill="white"/>
<path d="M54.7552 8.14346C54.7552 7.21027 54.9401 6.37098 55.3098 5.62559C55.6796 4.87434 56.199 4.29916 56.8681 3.90006C57.5372 3.49509 58.306 3.2926 59.1747 3.2926C60.46 3.2926 61.5018 3.70638 62.3 4.53393C63.1041 5.36148 63.5384 6.45901 63.603 7.82653L63.6118 8.32834C63.6118 9.26741 63.4298 10.1067 63.0659 10.8462C62.7079 11.5857 62.1914 12.158 61.5165 12.5629C60.8474 12.9679 60.0727 13.1704 59.1923 13.1704C57.8482 13.1704 56.7712 12.7243 55.9613 11.8322C55.1572 10.9343 54.7552 9.73988 54.7552 8.24911V8.14346ZM56.8945 8.32834C56.8945 9.30849 57.097 10.0774 57.502 10.6349C57.9069 11.1866 58.4704 11.4625 59.1923 11.4625C59.9142 11.4625 60.4747 11.1808 60.8738 10.6173C61.2788 10.0539 61.4812 9.22926 61.4812 8.14346C61.4812 7.18092 61.2729 6.41793 60.8562 5.85449C60.4453 5.29105 59.8848 5.00933 59.1747 5.00933C58.4762 5.00933 57.9216 5.28812 57.5108 5.84569C57.0999 6.39739 56.8945 7.22494 56.8945 8.32834Z" fill="white"/>
<path d="M70.6086 5.42311C70.3269 5.37615 70.0363 5.35268 69.737 5.35268C68.7569 5.35268 68.0966 5.7283 67.7562 6.47956V12.9943H65.6169V3.46868H67.6593L67.7121 4.53393C68.2286 3.70638 68.9447 3.2926 69.8603 3.2926C70.1655 3.2926 70.4178 3.33368 70.6174 3.41585L70.6086 5.42311Z" fill="white"/>
<path d="M76.1792 13.1704C74.8234 13.1704 73.723 12.7449 72.8778 11.8939C72.0385 11.037 71.6189 9.89834 71.6189 8.47801V8.21389C71.6189 7.26309 71.8008 6.415 72.1647 5.66961C72.5344 4.91836 73.0509 4.33438 73.7141 3.91767C74.3774 3.50096 75.1169 3.2926 75.9327 3.2926C77.2298 3.2926 78.2305 3.70638 78.9348 4.53393C79.6449 5.36148 80 6.53238 80 8.04662V8.90939H73.7758C73.8403 9.69586 74.1015 10.318 74.5593 10.7758C75.023 11.2336 75.604 11.4625 76.3024 11.4625C77.2826 11.4625 78.0808 11.0663 78.6971 10.274L79.8504 11.3744C79.4689 11.9437 78.9582 12.3869 78.3185 12.7038C77.6846 13.0149 76.9715 13.1704 76.1792 13.1704ZM75.9239 5.00933C75.337 5.00933 74.8616 5.21475 74.4977 5.62559C74.1397 6.03643 73.9108 6.60868 73.811 7.34232H77.8871V7.18386C77.8402 6.46782 77.6494 5.92786 77.3149 5.56397C76.9803 5.19421 76.5167 5.00933 75.9239 5.00933Z" fill="white"/>
</svg>
