<svg width="17" height="16" viewBox="0 0 17 16" fill="none" xmlns="http://www.w3.org/2000/svg">
<path d="M7.94901 0.242454C8.15007 -0.0809225 8.62072 -0.0809233 8.82177 0.242453L11.374 4.34727C11.4447 4.46104 11.5571 4.54269 11.6871 4.57481L16.3797 5.73362C16.7494 5.82491 16.8948 6.27252 16.6494 6.56367L13.5342 10.2594C13.4478 10.3618 13.4049 10.4939 13.4145 10.6276L13.7625 15.4486C13.79 15.8284 13.4092 16.105 13.0565 15.9616L8.57895 14.1408C8.45485 14.0904 8.31594 14.0904 8.19183 14.1408L3.71433 15.9616C3.36159 16.105 2.98083 15.8284 3.00824 15.4486L3.35624 10.6276C3.36588 10.4939 3.32296 10.3618 3.23661 10.2594L0.121364 6.56367C-0.124054 6.27252 0.0213835 5.82491 0.391063 5.73362L5.08364 4.57481C5.21371 4.54269 5.32609 4.46104 5.39683 4.34727L7.94901 0.242454Z" fill="url(#paint0_linear_0_311)"/>
<defs>
<linearGradient id="paint0_linear_0_311" x1="8.38539" y1="-0.459408" x2="8.38539" y2="18.0394" gradientUnits="userSpaceOnUse">
<stop stop-color="#605DEC"/>
<stop offset="1" stop-color="#2A26D9"/>
</linearGradient>
</defs>
</svg>
