<svg width="17" height="16" viewBox="0 0 17 16" fill="none" xmlns="http://www.w3.org/2000/svg">
<path d="M7.94897 0.242454C8.15003 -0.0809225 8.62068 -0.0809233 8.82174 0.242453L11.3739 4.34727C11.4447 4.46104 11.557 4.54269 11.6871 4.57481L16.3797 5.73362C16.7494 5.82491 16.8948 6.27252 16.6494 6.56367L13.5341 10.2594C13.4478 10.3618 13.4049 10.4939 13.4145 10.6276L13.7625 15.4486C13.7899 15.8284 13.4092 16.105 13.0564 15.9616L8.57892 14.1408C8.45481 14.0904 8.3159 14.0904 8.19179 14.1408L3.71429 15.9616C3.36155 16.105 2.98079 15.8284 3.00821 15.4486L3.3562 10.6276C3.36585 10.4939 3.32292 10.3618 3.23657 10.2594L0.121329 6.56367C-0.124089 6.27252 0.0213482 5.82491 0.391028 5.73362L5.0836 4.57481C5.21367 4.54269 5.32605 4.46104 5.39679 4.34727L7.94897 0.242454Z" fill="url(#paint0_linear_0_275)"/>
<defs>
<linearGradient id="paint0_linear_0_275" x1="8.38536" y1="-0.459408" x2="8.38536" y2="18.0394" gradientUnits="userSpaceOnUse">
<stop stop-color="#605DEC"/>
<stop offset="1" stop-color="#2A26D9"/>
</linearGradient>
</defs>
</svg>
